<?xml version="1.0" standalone="no"?>
<!DOCTYPE svg PUBLIC "-//W3C//DTD SVG 20010904//EN"
 "http://www.w3.org/TR/2001/REC-SVG-20010904/DTD/svg10.dtd">
<svg version="1.0" xmlns="http://www.w3.org/2000/svg"
 width="500.000000pt" height="500.000000pt" viewBox="0 0 500.000000 500.000000"
 preserveAspectRatio="xMidYMid meet">

<g transform="translate(0.000000,500.000000) scale(0.100000,-0.100000)"
fill="#000000" stroke="none">
<path d="M2361 4990 c-110 -12 -316 -64 -416 -107 -431 -184 -755 -568 -865
-1025 -29 -121 -43 -381 -34 -664 3 -132 4 -250 0 -261 -6 -20 -15 -21 -159
-25 -194 -6 -243 -22 -333 -112 -71 -71 -108 -137 -123 -221 -15 -81 -15
-1547 0 -1670 18 -150 89 -342 166 -449 166 -233 362 -362 658 -433 63 -15
180 -17 1145 -20 1159 -5 1275 -1 1427 43 232 66 425 202 566 400 55 76 124
230 155 341 l27 98 3 815 c3 869 3 890 -45 984 -38 76 -136 168 -208 197 l-60
24 -1303 3 -1303 2 3 378 4 377 28 85 c92 278 267 478 497 569 310 123 654 52
896 -186 148 -146 229 -329 252 -566 19 -198 58 -227 305 -227 169 0 221 13
266 68 45 55 55 118 41 254 -17 158 -45 273 -102 419 -180 462 -577 789 -1076
888 -119 23 -298 32 -412 21z m291 -2932 c74 -34 159 -99 192 -147 93 -134
100 -334 14 -461 -37 -56 -87 -107 -125 -128 -16 -10 -18 -27 -18 -170 l0
-158 -30 -49 c-91 -147 -279 -147 -370 -1 -30 49 -30 51 -33 210 l-4 161 -39
27 c-49 35 -125 137 -141 191 -7 23 -13 87 -13 142 1 91 4 106 32 167 51 109
158 198 283 234 71 21 185 12 252 -18z"/>
</g>
</svg>
